<?xml version="1.0" encoding="utf-8"?>
<!-- Generator: Adobe Illustrator 15.1.0, SVG Export Plug-In . SVG Version: 6.00 Build 0)  -->
<!DOCTYPE svg PUBLIC "-//W3C//DTD SVG 1.1//EN" "http://www.w3.org/Graphics/SVG/1.1/DTD/svg11.dtd">
<svg version="1.1" id="Layer_4" xmlns="http://www.w3.org/2000/svg" xmlns:xlink="http://www.w3.org/1999/xlink" x="0px" y="0px"
	 width="108px" height="108px" viewBox="0 0 108 108" enable-background="new 0 0 108 108" xml:space="preserve">
<path opacity="0.4" fill="#E2C06D" d="M108,67.84V108h-31.26l-53.68-53.68l7.12-5.22l1.69,2.98l13.61-1.99l2.4,4.18L57,54.25v-2.93
	l0.02-16.41h11.141c4.229,0,7.439,0.91,9.64,2.73c0.08,0.07,0.16,0.13,0.23,0.2l0.09,0.12L108,67.84z"/>
<path fill="#7FFFD4" d="M31.872,51.16c0-1.174,1.254-2.125,2.8-2.125h8.401c1.546,0,2.8,0.951,2.8,2.125v6.373
	c0,1.174-1.253,2.124-2.8,2.124h-8.401c-1.546,0-2.8-0.95-2.8-2.124V51.16z"/>
<path fill="#FFFFFF" d="M78.92,38.76c-0.27-0.33-0.57-0.63-0.89-0.92c-0.07-0.07-0.15-0.13-0.23-0.2c-2.2-1.82-5.41-2.73-9.64-2.73
	H57.02v16.41h-9.14v6.05h9.14v18.52h7.391v-6.12h0.01V57.37h3.17c4.32,0,7.66-0.99,10-2.98c2.34-1.98,3.521-4.85,3.521-8.6
	C81.111,42.86,80.38,40.51,78.92,38.76z M71.951,49.97c-1.13,0.9-2.83,1.35-5.101,1.35h-2.43V40.97h3.36c2.02,0,3.5,0.41,4.439,1.24
	c0.95,0.83,1.42,2.11,1.42,3.84C73.64,47.76,73.081,49.07,71.951,49.97z"/>
<g opacity="0.4">
	<polygon fill="#666666" points="64.223,57.373 64.223,69.772 64.216,69.772 64.216,75.892 64.411,75.892 64.411,69.772 
		64.416,69.772 64.416,57.373 64.407,57.373 	"/>
	<polygon fill="#666666" points="64.223,51.317 64.407,51.317 64.416,51.317 64.416,40.969 64.223,40.969 	"/>
	<path fill="#666666" d="M77.805,37.643c-2.201-1.819-5.417-2.729-9.645-2.729h-0.194c4.229,0,7.443,0.91,9.646,2.729
		c2.201,1.821,3.302,4.535,3.302,8.143c0,3.751-1.172,6.621-3.516,8.608c-2.347,1.987-5.681,2.979-10.004,2.979h0.193
		c4.323,0,7.658-0.992,10.003-2.979c2.344-1.987,3.517-4.856,3.517-8.608C81.107,42.177,80.006,39.463,77.805,37.643z"/>
</g>
<path opacity="0.4" fill="#666666" d="M43.073,49.035h-0.194c1.547,0,2.8,0.951,2.8,2.125v6.373c0,1.174-1.253,2.124-2.8,2.124
	h0.194c1.546,0,2.8-0.95,2.8-2.124V51.16C45.873,49.986,44.62,49.035,43.073,49.035z"/>
<polygon points="30.183,59.592 22.94,54.346 30.183,49.099 "/>
</svg>
