<?xml version="1.0" encoding="utf-8"?>
<!-- Generator: Adobe Illustrator 15.1.0, SVG Export Plug-In . SVG Version: 6.00 Build 0)  -->
<!DOCTYPE svg PUBLIC "-//W3C//DTD SVG 1.1//EN" "http://www.w3.org/Graphics/SVG/1.1/DTD/svg11.dtd">
<svg version="1.1" xmlns="http://www.w3.org/2000/svg" xmlns:xlink="http://www.w3.org/1999/xlink" x="0px" y="0px" width="1000px"
	 height="1000px" viewBox="0 0 1000 1000" enable-background="new 0 0 1000 1000" xml:space="preserve">
<g id="Layer_1" display="none">
	<g display="inline" opacity="0.5">
		<rect x="16.234" y="17.115" fill="none" stroke="#231F20" stroke-miterlimit="10" width="967.532" height="965.77"/>
		<path fill="none" stroke="#231F20" stroke-miterlimit="10" d="M828.71,885.035H171.29c-30.229,0-54.824-24.688-54.824-55.034v-660
			c0-30.348,24.595-55.036,54.824-55.036H828.71c30.23,0,54.824,24.688,54.824,55.036v660
			C883.535,860.347,858.941,885.035,828.71,885.035z"/>
		<path fill="none" stroke="#231F20" stroke-miterlimit="10" d="M776.347,944.902H223.651c-25.413,0-46.089-28.525-46.089-63.59
			V118.689c0-35.065,20.676-63.591,46.089-63.591h552.696c25.415,0,46.093,28.526,46.093,63.591v762.624
			C822.44,916.377,801.762,944.902,776.347,944.902z"/>
		<path fill="none" stroke="#231F20" stroke-miterlimit="10" d="M880.821,821.333H119.178c-35.021,0-63.514-20.603-63.514-45.929
			V224.596c0-25.326,28.492-45.929,63.514-45.929h761.643c35.021,0,63.516,20.603,63.516,45.929v550.808
			C944.336,800.73,915.842,821.333,880.821,821.333z"/>
		<circle fill="none" stroke="#231F20" stroke-miterlimit="10" cx="500.001" cy="500" r="202.965"/>
		<circle fill="none" stroke="#231F20" stroke-miterlimit="10" cx="500" cy="500" r="444.902"/>
		<line fill="none" stroke="#231F20" stroke-miterlimit="10" x1="16.234" y1="17.115" x2="983.766" y2="982.885"/>
		<line fill="none" stroke="#231F20" stroke-miterlimit="10" x1="983.766" y1="17.115" x2="16.234" y2="982.885"/>
		<line fill="none" stroke="#231F20" stroke-miterlimit="10" x1="500" y1="17.115" x2="500" y2="982.885"/>
		<line fill="none" stroke="#231F20" stroke-miterlimit="10" x1="356" y1="17.114" x2="356" y2="982.885"/>
		<line fill="none" stroke="#231F20" stroke-miterlimit="10" x1="639" y1="17.115" x2="639" y2="982.885"/>
		<line fill="none" stroke="#231F20" stroke-miterlimit="10" x1="16.234" y1="500" x2="983.766" y2="500"/>
		<line fill="none" stroke="#231F20" stroke-miterlimit="10" x1="16.234" y1="500" x2="983.766" y2="500"/>
		<line fill="none" stroke="#231F20" stroke-miterlimit="10" x1="16.234" y1="500" x2="983.766" y2="500"/>
		<line fill="none" stroke="#231F20" stroke-miterlimit="10" x1="16.235" y1="643" x2="983.767" y2="643"/>
		<line fill="none" stroke="#231F20" stroke-miterlimit="10" x1="16.235" y1="360" x2="983.767" y2="360"/>
	</g>
</g>
<g id="Layer_3">
</g>
<g id="Layer_2">
	<g>
		<path fill="#FFE488" d="M1000,499.996c0,15.893-0.742,31.621-2.202,47.134c-20.291,217.134-179.443,393.934-387.765,440.707
			C574.638,995.809,537.798,1000,499.996,1000C223.857,1000,0,776.146,0,499.996C0,223.857,223.857,0,499.996,0
			C776.135,0,1000,223.857,1000,499.996z"/>
		<path opacity="0.4" fill="#FFE488" d="M997.799,547.13c-20.29,217.134-179.441,393.935-387.763,440.708L144.316,522.106
			l-4.969-4.968l82.611-60.5l20.065,19.75l40.412,39.76l117.402-47.112l2.181,3.035c0,0,0,0,0.012,0.011l25.225,35.174
			l106.094-24.889V292.068h129.173c49.056,0,86.354,10.555,111.894,31.667c1.091,0.899,2.158,1.832,3.204,2.776l0.483,0.921
			l9.521,9.521L997.799,547.13z"/>
		<g>
			<g>
				<path fill="#7FFFD4" d="M241.562,480.537c0-13.612,14.543-24.643,32.485-24.643H371.5c17.939,0,32.484,11.03,32.484,24.643
					v73.928c0,13.61-14.545,24.643-32.484,24.643h-97.453c-17.942,0-32.485-11.032-32.485-24.643V480.537z"/>
				<polygon points="221.96,578.363 137.95,517.498 221.96,456.636 				"/>
			</g>
			<path fill="#FFFFFF" d="M787.625,336.954c-3.047-3.709-6.385-7.194-10.005-10.443c-1.046-0.944-2.113-1.877-3.204-2.776
				c-25.539-21.111-62.838-31.667-111.894-31.667H533.349v190.301H427.255v70.258h106.094v214.829h85.669v-71h0.079V552.627h36.792
				c50.158,0,88.828-11.522,116.031-34.578c27.203-23.044,40.806-56.329,40.806-99.855
				C812.726,384.324,804.362,357.244,787.625,336.954z M706.508,466.744c-13.097,10.421-32.824,15.625-59.196,15.625h-28.215
				V362.325h39.007c23.414,0,40.614,4.8,51.586,14.377c10.971,9.6,16.456,24.438,16.456,44.538
				C726.146,441.16,719.604,456.324,706.508,466.744z"/>
		</g>
	</g>
</g>
</svg>
