<?xml version="1.0" encoding="utf-8"?>
<!-- Generator: Adobe Illustrator 15.1.0, SVG Export Plug-In . SVG Version: 6.00 Build 0)  -->
<!DOCTYPE svg PUBLIC "-//W3C//DTD SVG 1.1//EN" "http://www.w3.org/Graphics/SVG/1.1/DTD/svg11.dtd">
<svg version="1.1" xmlns="http://www.w3.org/2000/svg" xmlns:xlink="http://www.w3.org/1999/xlink" x="0px" y="0px"
	 width="940.202px" height="260.806px" viewBox="0 0 940.202 260.806" enable-background="new 0 0 940.202 260.806"
	 xml:space="preserve">
<g id="Layer_3">
</g>
<g id="Layer_2">
	<g>
		<path fill="#7FFFD4" d="M140.832,118.155c0-3.26,3.486-5.902,7.783-5.902h23.346c4.297,0,7.783,2.643,7.783,5.902v17.711
			c0,3.262-3.486,5.906-7.783,5.906h-23.346c-4.297,0-7.783-2.645-7.783-5.906V118.155z"/>
		<polygon points="136.137,141.593 116.01,127.01 136.137,112.43 		"/>
	</g>
	<path fill="#FFFFFF" d="M314.34,76.596l-35.568,109.569h21.438l7.441-26.453h38.803l7.441,26.453h21.434L339.623,76.596H314.34z
		 M341.836,141.972h-29.283l0.373-1.311c7.264-25.458,11.723-41.633,13.256-48.075L328,92.62c0.369,1.801,0.988,4.283,1.842,7.381
		c0.855,3.105,4.654,16.406,11.615,40.659L341.836,141.972z"/>
	<polygon fill="#FFFFFF" points="376.613,94.641 404.484,94.641 404.484,186.165 424.377,186.165 424.377,94.641 452.248,94.641 
		452.248,77.051 376.613,77.051 	"/>
	<g>
		<polygon fill="#FFFFFF" points="470.158,89.136 504.064,89.136 504.064,185.588 517.791,185.588 517.791,89.136 551.474,89.136 
			551.474,77.118 470.158,77.118 		"/>
		<path fill="#FFFFFF" d="M586.494,106.794c-4.256,2.771-7.938,6.852-11.055,12.244h-0.594l-1.484-14.913h-10.979v81.463h13.354
			v-43.476c0-5.094,1.039-9.73,3.117-13.913c2.075-4.178,4.957-7.456,8.644-9.831c3.682-2.375,7.678-3.561,11.981-3.561
			c2.868,0,5.811,0.347,8.828,1.039l1.632-12.317c-2.771-0.593-5.96-0.89-9.57-0.89C595.372,102.64,590.748,104.025,586.494,106.794
			z"/>
		<path fill="#FFFFFF" d="M654.529,102.789c-4.749,0-9.547,0.619-14.393,1.855c-4.85,1.236-9.326,2.942-13.431,5.117l4.081,10.016
			c3.363-1.582,6.961-3.015,10.795-4.301c3.832-1.286,7.901-1.931,12.205-1.931c5.886,0,10.165,1.474,12.834,4.416
			c2.672,2.942,4.008,7.505,4.008,13.688v4.823l-13.801,0.52c-26.067,0.792-39.099,9.447-39.099,25.968
			c0,7.668,2.274,13.604,6.825,17.805c4.55,4.206,10.832,6.309,18.846,6.309c6.133,0,11.213-0.902,15.246-2.708
			c4.031-1.806,8.074-5.256,12.131-10.35h0.594l2.598,11.572h9.717v-55.497c0-9.497-2.398-16.419-7.195-20.773
			C671.691,104.965,664.37,102.789,654.529,102.789z M670.481,153.092c0,7.42-2.142,13.146-6.419,17.177
			c-4.279,4.03-10.152,6.046-17.621,6.046c-4.699,0-8.347-1.137-10.942-3.414c-2.598-2.272-3.896-5.537-3.896-9.793
			c0-5.639,2.139-9.767,6.419-12.389c4.277-2.621,11.092-4.106,20.439-4.453l12.021-0.52V153.092z"/>
		<path fill="#FFFFFF" d="M742.225,114.288c4.847,0,10.709,1.288,17.584,3.858l4.08-11.129c-2.521-1.286-5.726-2.336-9.607-3.152
			c-3.883-0.816-7.804-1.225-11.761-1.225c-12.218,0-21.625,3.697-28.229,11.092c-6.603,7.395-9.904,17.917-9.904,31.571
			c0,13.454,3.265,23.777,9.793,30.975c6.529,7.196,15.656,10.796,27.378,10.796c8.358,0,15.358-1.461,20.995-4.377v-11.871
			c-6.925,3.164-13.973,4.747-21.145,4.747c-7.668,0-13.454-2.608-17.361-7.828c-3.907-5.217-5.859-12.748-5.859-22.591
			c0-10.239,1.952-17.941,5.859-23.111C727.954,116.873,734.014,114.288,742.225,114.288z"/>
		<polygon fill="#FFFFFF" points="813.45,138.921 846.393,104.125 830.811,104.125 804.77,131.649 799.576,137.882 795.05,143.671 
			794.457,143.671 795.05,130.464 795.05,70.143 781.843,70.143 781.843,185.588 795.05,185.588 795.05,155.689 804.323,147.602 
			832.593,185.588 848.691,185.588 		"/>
	</g>
	<path fill="#FFFFFF" d="M268.488,80.592c-6.121-5.059-15.055-7.588-26.807-7.588h-30.945v45.592H185.32v16.831h25.416v27.555v6.904
		v17.01h20.523v-17.01h0.02v-34.459h0.51h8.303c12.016,0,21.283-2.76,27.799-8.284c6.516-5.521,9.773-13.494,9.773-23.922
		C277.664,93.194,274.605,85.651,268.488,80.592z M252.219,114.85c-3.137,2.496-7.863,3.746-14.182,3.746h-6.248h-0.51v-28.76h9.342
		c5.609,0,9.73,1.148,12.361,3.445c2.627,2.297,3.941,5.854,3.941,10.67C256.924,108.721,255.355,112.356,252.219,114.85z"/>
</g>
</svg>
