<?xml version="1.0" encoding="utf-8"?>
<!-- Generator: Adobe Illustrator 15.1.0, SVG Export Plug-In . SVG Version: 6.00 Build 0)  -->
<!DOCTYPE svg PUBLIC "-//W3C//DTD SVG 1.1//EN" "http://www.w3.org/Graphics/SVG/1.1/DTD/svg11.dtd">
<svg version="1.1" xmlns="http://www.w3.org/2000/svg" xmlns:xlink="http://www.w3.org/1999/xlink" x="0px" y="0px"
	 width="735.399px" height="614.668px" viewBox="0 0 735.399 614.668" enable-background="new 0 0 735.399 614.668"
	 xml:space="preserve">
<g id="Layer_3">
</g>
<g id="Layer_2">
	<g>
		<path fill="#7FFFD4" d="M204.392,221.836c0-9.452,10.1-17.112,22.559-17.112h67.674c12.459,0,22.561,7.66,22.561,17.112v51.339
			c0,9.452-10.102,17.113-22.561,17.113H226.95c-12.459,0-22.559-7.661-22.559-17.113V221.836z"/>
		<polygon points="190.778,289.772 132.438,247.505 190.778,205.24 		"/>
	</g>
	<g>
		<path fill="#FFFFFF" d="M407.022,351.772v20.012v49.305h59.49v-49.305h0.057V271.9h1.479h24.068
			c34.832,0,61.689-8.002,80.582-24.011c18.887-16.005,28.332-39.118,28.332-69.343c0-29.067-8.869-50.934-26.603-65.596
			c-17.739-14.662-43.638-21.995-77.7-21.995h-89.705v132.156h-73.674V271.9h73.674V351.772z M466.569,139.746h27.084
			c16.262,0,28.205,3.332,35.824,9.988c7.617,6.66,11.43,16.969,11.43,30.927c0,13.829-4.547,24.364-13.639,31.597
			c-9.094,7.236-22.795,10.854-41.105,10.854h-18.115h-1.479V139.746z"/>
		<path fill="#FFFFFF" d="M243.54,458.317c-4.424-3.658-10.884-5.488-19.378-5.488h-22.375v70.045h14.854v-24.912h6.371
			c8.687,0,15.385-1.996,20.099-5.988c4.709-3.992,7.066-9.758,7.066-17.297C250.177,467.426,247.964,461.973,243.54,458.317z
			 M231.779,483.084c-2.268,1.805-5.687,2.707-10.253,2.707h-4.886v-20.793h6.754c4.057,0,7.035,0.832,8.937,2.49
			c1.9,1.662,2.851,4.234,2.851,7.715C235.182,478.653,234.046,481.282,231.779,483.084z"/>
		<path fill="#FFFFFF" d="M276.909,452.543l-24.721,70.33h16.002l5.078-16.674h25.537l5.079,16.674h16.001l-24.817-70.33H276.909z
			 M277.008,493.745c4.981-16.129,7.999-26.238,9.053-30.326c0.256,1.148,0.679,2.717,1.271,4.695
			c0.589,1.98,3.233,10.525,7.928,25.631H277.008z"/>
		<polygon fill="#FFFFFF" points="318.497,465.19 337.517,465.19 337.517,522.874 352.369,522.874 352.369,465.19 371.389,465.19 
			371.389,452.829 318.497,452.829 		"/>
		<g>
			<polygon fill="#FFFFFF" points="384.304,460.616 406.219,460.616 406.219,522.954 415.09,522.954 415.09,460.616 
				436.859,460.616 436.859,452.845 384.304,452.845 			"/>
			<path fill="#FFFFFF" d="M459.494,472.028c-2.748,1.789-5.131,4.428-7.145,7.912h-0.385l-0.957-9.64h-7.098v52.653h8.632v-28.101
				c0-3.292,0.67-6.291,2.013-8.99c1.344-2.702,3.204-4.819,5.589-6.354c2.38-1.533,4.962-2.301,7.741-2.301
				c1.855,0,3.759,0.224,5.709,0.671l1.053-7.962c-1.789-0.382-3.852-0.574-6.186-0.574
				C465.234,469.342,462.242,470.236,459.494,472.028z"/>
			<path fill="#FFFFFF" d="M503.469,469.438c-3.07,0-6.17,0.399-9.303,1.196c-3.135,0.803-6.028,1.903-8.68,3.31l2.637,6.475
				c2.173-1.02,4.5-1.95,6.979-2.781c2.477-0.83,5.106-1.246,7.887-1.246c3.805,0,6.568,0.951,8.296,2.854
				c1.726,1.903,2.591,4.851,2.591,8.848v3.117l-8.92,0.336c-16.849,0.51-25.271,6.105-25.271,16.782
				c0,4.957,1.471,8.792,4.414,11.51c2.938,2.718,7,4.077,12.177,4.077c3.964,0,7.249-0.585,9.854-1.754
				c2.607-1.165,5.221-3.395,7.842-6.689h0.385l1.674,7.482h6.284v-35.87c0-6.135-1.552-10.612-4.651-13.426
				C514.561,470.845,509.828,469.438,503.469,469.438z M513.778,501.95c0,4.795-1.384,8.496-4.149,11.103
				c-2.764,2.605-6.563,3.907-11.389,3.907c-3.037,0-5.395-0.733-7.072-2.208c-1.678-1.467-2.518-3.579-2.518-6.329
				c0-3.643,1.383-6.312,4.15-8.007c2.762-1.694,7.166-2.651,13.209-2.877l7.769-0.338V501.95z"/>
			<path fill="#FFFFFF" d="M560.148,476.872c3.132,0,6.922,0.83,11.366,2.494l2.637-7.195c-1.63-0.83-3.701-1.51-6.209-2.039
				c-2.511-0.526-5.045-0.789-7.603-0.789c-7.895,0-13.977,2.39-18.247,7.169c-4.266,4.779-6.396,11.581-6.396,20.402
				c0,8.698,2.107,15.371,6.325,20.022c4.221,4.65,10.118,6.979,17.695,6.979c5.404,0,9.926-0.946,13.572-2.831v-7.672
				c-4.477,2.046-9.031,3.066-13.668,3.066c-4.955,0-8.695-1.684-11.221-5.058c-2.521-3.372-3.789-8.238-3.789-14.602
				c0-6.617,1.268-11.598,3.789-14.936C550.926,478.542,554.842,476.872,560.148,476.872z"/>
			<polygon fill="#FFFFFF" points="606.184,492.792 627.477,470.3 617.405,470.3 600.574,488.092 597.217,492.121 594.293,495.86 
				593.908,495.86 594.293,487.325 594.293,448.338 585.756,448.338 585.756,522.954 594.293,522.954 594.293,503.628 
				600.285,498.403 618.558,522.954 628.961,522.954 			"/>
		</g>
	</g>
</g>
</svg>
